<svg width="22" height="21" viewBox="0 0 22 21" fill="none" xmlns="http://www.w3.org/2000/svg">
<path fill-rule="evenodd" clip-rule="evenodd" d="M11 0.894737C5.41702 0.894737 0.894775 5.42319 0.894775 11C0.894775 15.4664 3.79174 19.2505 7.80531 20.5904C8.30778 20.6834 8.49388 20.3733 8.49388 20.1003C8.49388 19.8584 8.48768 19.2256 8.48148 18.382C5.67136 18.9899 5.07584 17.0297 5.07584 17.0297C4.61679 15.8634 3.95303 15.5533 3.95303 15.5533C3.03493 14.9267 4.02127 14.9391 4.02127 14.9391C5.03241 15.0136 5.5721 15.9813 5.5721 15.9813C6.47159 17.5259 7.93558 17.0793 8.51249 16.8187C8.60554 16.1674 8.86608 15.7208 9.15144 15.4664C6.90582 15.2121 4.54855 14.3436 4.54855 10.4727C4.54855 9.36852 4.93936 8.46903 5.59071 7.76185C5.48526 7.50751 5.13787 6.47776 5.68997 5.0882C5.68997 5.0882 6.53983 4.81526 8.46907 6.12417C9.27551 5.90084 10.1378 5.78918 11 5.78298C11.8561 5.78918 12.7246 5.90084 13.531 6.12417C15.4602 4.81526 16.3101 5.0882 16.3101 5.0882C16.8622 6.47776 16.5148 7.50751 16.4094 7.76185C17.0545 8.46903 17.4453 9.36852 17.4453 10.4727C17.4453 14.356 15.0818 15.2059 12.83 15.4602C13.1898 15.7704 13.5186 16.3907 13.5186 17.3336C13.5186 18.686 13.5062 19.7715 13.5062 20.1065C13.5062 20.3795 13.6861 20.6896 14.201 20.5904C18.2145 19.2505 21.1053 15.4664 21.1053 11.0062C21.1053 5.42318 16.5831 0.894737 11 0.894737Z" fill="#191717"/>
</svg>
